<svg id="Layer_1" xmlns="http://www.w3.org/2000/svg" viewBox="0 0 959 312"><style>.st0{fill:#41b883;stroke:#35495e;stroke-width:10;stroke-miterlimit:10}</style><path class="st0" d="M40.5 82.9l-18.9-4.5-1-27.9L87.3 55l41.3 130.5 29.8-122.4 63.8 3.6-66.6 203.4-49.4-.9L40.5 82.9zM295 131.4c5.2 2.8 9.4 6.5 12.7 11.3 3.3 4.7 5.6 10 7.1 15.9s2.3 12 2.3 18.4c0 5.3-.4 10.4-1.3 15.3-.8 4.9-2 9.4-3.5 13.5s-3.2 7.6-5.2 10.4c-4.6 6.9-9.6 12.8-14.8 17.8-5.3 5-10.7 9-16.1 12-5.5 3-10.9 5.3-16.3 6.7-5.4 1.4-10.7 2.1-16 2.1-6.2 0-12.1-1-17.7-2.9s-10.4-4.5-14.3-7.6c-6.5-5.4-11.6-12.7-15.3-21.9-3.7-9.2-5.5-18.9-5.5-29.2 0-17.7 5.1-31.9 15.3-42.7 8.7-9.3 17.7-16.3 27-21 9.3-4.7 18.8-7.1 28.6-7.1 5.7 0 11.2.7 16.5 2.1 5.2 1.5 10.7 3.7 16.5 6.9zm-6.5 18.4c-1.2 5.6-3.9 10.5-8.1 14.7-4.1 4.2-8.2 6.4-12.1 6.4-2 0-3.7-.5-5.3-1.5-2.2-1.8-3.3-4.8-3.3-9.2 0-3.4 1.1-6.7 3.4-10 2.2-3.3 5.8-5.9 10.6-7.8-4.8 0-9.5.9-14 2.7-4.5 1.8-8.4 4.2-11.6 7.1-3.2 2.9-5.8 6.2-7.7 9.8-1.9 3.6-2.9 7.3-2.9 10.9 0 6.8 3.1 12.2 9.4 16.3 5.9 3.7 11.4 5.6 16.7 5.6 5.2 0 9.8-1.7 13.8-5.2s7.1-7.9 9.2-13.4c2.1-5.5 3.2-10.9 3.2-16.2 0-3.7-.4-7.1-1.3-10.2z"/><path class="st0" d="M298.8 66.8l55.8-23.4 8.1 126.9 45.9-25.2 47.7 7.1-62.2 47.7 58.6 44.2 2.6 44.1-86.3-62.1 2.7 53.9-52.3 1-9.9-190.8-16.1 3.6 5.4-27z"/><path class="st0" d="M532.8 189.6l26.5 32c-2.1 6.2-7.2 11.8-15.1 16.9-7.9 5.1-17.4 9.2-28.3 12.1-11 3-21.9 4.4-32.8 4.4-9.7 0-18.3-1.3-25.9-3.8-7.6-2.6-13.4-6.4-17.5-11.6-7.1-8.9-10.7-20.4-10.7-34.3 0-11 2-21.8 6-32.5s8.2-18.1 12.7-22.4c5.3-5.1 11.2-9.3 17.4-12.6 6.3-3.4 12.8-5.9 19.5-7.6 6.7-1.7 13.7-2.5 20.8-2.5 9.3 0 18.1 1.5 26.5 4.4 8.4 3 15.7 7.3 22 12.9l-60.3 72c5.3 0 10.4-1.1 15.2-3.4 4.8-2.2 9.2-5.4 13.2-9.6 4.1-4 7.7-8.8 10.8-14.4zM445.9 84.8l58.6-32.4 25.2 38.7-71.1 13.5-12.7-19.8zm56.5 79.2c-3.6-1.8-7.3-2.7-11-2.7-4 0-7.8.8-11.5 2.4-3.7 1.6-6.3 3.5-7.9 5.7-4.5 5.9-6.8 12.3-6.8 19.3 0 2.6.3 5 .8 7.4.5 2.3 1.4 5.6 2.6 9.7l33.8-41.8z"/><path class="st0" d="M616 36.1l45.9-20.7 2.7 148.8c.6 3.8.9 8.1.9 13 0 4.2-.1 7.4-.4 9.4l1.3 67.3-49.4 2.6v-6.7c-8.1 3.3-16.2 4.9-24.4 4.9-6.3 0-12.2-1-17.7-2.9s-10.3-4.5-14.3-7.7c-6.5-5.4-11.6-12.7-15.3-21.9-3.7-9.2-5.5-18.9-5.5-29.2 0-17.7 5.1-31.9 15.3-42.7 8.8-9.2 17.9-16.2 27.2-21 9.3-4.8 18.9-7.1 28.6-7.1 2.7 0 4.8.1 6.2.2L616 36.1zm1 106.7c-4 .5-8 1.8-11.9 3.8-3.9 2.1-7.3 4.5-10.1 7.3s-5 5.8-6.5 9.2c-1.6 3.3-2.4 6.6-2.4 9.8 0 6.7 3.1 12.1 9.4 16.3 5.6 3.7 11.2 5.6 16.9 5.6 1.1 0 2.6-.1 4.5-.4V171c-2 0-3.7-.5-5.3-1.5-2.2-1.8-3.3-5.1-3.3-10.1.1-7.3 3-12.8 8.7-16.6z"/><path class="st0" d="M757.8 189.6l26.5 32c-2.1 6.2-7.2 11.8-15.1 16.9-7.9 5.1-17.4 9.2-28.3 12.1-11 3-21.9 4.4-32.8 4.4-9.7 0-18.3-1.3-25.9-3.8-7.6-2.6-13.4-6.4-17.5-11.6-7.1-8.9-10.7-20.4-10.7-34.3 0-11 2-21.8 6-32.5s8.2-18.1 12.7-22.4c5.3-5.1 11.2-9.3 17.4-12.6 6.3-3.4 12.8-5.9 19.5-7.6 6.7-1.7 13.7-2.5 20.8-2.5 9.3 0 18.1 1.5 26.5 4.4 8.4 3 15.7 7.3 22 12.9l-60.3 72c5.3 0 10.4-1.1 15.2-3.4 4.8-2.2 9.2-5.4 13.2-9.6 4.1-4 7.7-8.8 10.8-14.4zM727.4 164c-3.6-1.8-7.3-2.7-11-2.7-4 0-7.8.8-11.5 2.4-3.7 1.6-6.3 3.5-7.9 5.7-4.5 5.9-6.8 12.3-6.8 19.3 0 2.6.3 5 .8 7.4.5 2.3 1.4 5.6 2.6 9.7l33.8-41.8z"/><path class="st0" d="M847.8 229.5l-26.6 34.4-56.7 1.8 54.9-72.6-62.1-80.3 60.2 2.6 30.2 39.9 30.1-39.9 60.3-2.6-61.9 80.2 54.9 72.6-56.8-1.8-26.5-34.3z"/></svg>